<?xml version="1.0" encoding="UTF-8" standalone="no"?>
<!-- Created with Inkscape (http://www.inkscape.org/) -->

<svg
   width="16"
   height="16"
   viewBox="0 0 16 16"
   version="1.1"
   id="svg848"
   inkscape:version="1.2.2 (732a01da63, 2022-12-09)"
   sodipodi:docname="MD_to_CSV_resource.svg"
   xml:space="preserve"
   inkscape:export-filename="Projectile.png"
   inkscape:export-xdpi="96"
   inkscape:export-ydpi="96"
   xmlns:inkscape="http://www.inkscape.org/namespaces/inkscape"
   xmlns:sodipodi="http://sodipodi.sourceforge.net/DTD/sodipodi-0.dtd"
   xmlns="http://www.w3.org/2000/svg"
   xmlns:svg="http://www.w3.org/2000/svg"
   xmlns:rdf="http://www.w3.org/1999/02/22-rdf-syntax-ns#"
   xmlns:cc="http://creativecommons.org/ns#"
   xmlns:dc="http://purl.org/dc/elements/1.1/"><title
     id="title5848">MD_to_CSV_resource</title><sodipodi:namedview
     id="namedview850"
     pagecolor="#ffffff"
     bordercolor="#000000"
     borderopacity="0.25"
     inkscape:showpageshadow="2"
     inkscape:pageopacity="0.0"
     inkscape:pagecheckerboard="0"
     inkscape:deskcolor="#d1d1d1"
     inkscape:document-units="mm"
     showgrid="false"
     inkscape:zoom="22.627418"
     inkscape:cx="4.8171647"
     inkscape:cy="5.4358831"
     inkscape:window-width="1920"
     inkscape:window-height="1009"
     inkscape:window-x="-8"
     inkscape:window-y="-8"
     inkscape:window-maximized="1"
     inkscape:current-layer="g3247" /><defs
     id="defs845" /><g
     inkscape:label="Слой 1"
     inkscape:groupmode="layer"
     id="layer1"><g
       id="g3247"
       transform="translate(-3.5762787e-6,0.93378419)"><g
         aria-label="csv"
         id="text3139"
         style="font-size:5.56522px;font-family:'Public Pixel';-inkscape-font-specification:'Public Pixel';fill:#ffffff;fill-opacity:1;stroke-width:0.565781;stroke-linecap:round;stroke-linejoin:round;stroke-dashoffset:28.7769"
         inkscape:label="csv"
         transform="translate(0,0.21711504)"><path
           d="M 0.69565248,9.3154902 H 0 V 7.2285328 H 0.69565248 V 6.5328803 H 4.1739149 V 7.2285328 H 4.8695674 V 7.9241853 H 3.4782624 V 7.2285328 H 1.391305 V 9.3154902 H 3.4782624 V 8.6198378 h 1.391305 V 9.3154902 H 4.1739149 V 10.011143 H 0.69565248 Z"
           id="path5725"
           style="fill:#ffffff;fill-opacity:1" /><path
           d="M 5.5652199,10.011143 V 9.3154902 H 9.0434823 V 8.6198378 H 5.5652199 V 7.2285328 H 6.2608724 V 6.5328803 H 10.434787 V 7.2285328 H 6.9565248 V 7.9241853 H 10.434787 V 9.3154902 H 9.7391348 v 0.6956528 z"
           id="path5727"
           style="fill:#ffffff;fill-opacity:1" /><path
           d="M 11.826092,7.9241853 H 11.13044 v -1.391305 h 1.391305 v 1.391305 h 0.695652 V 8.6198378 H 13.91305 V 7.9241853 h 0.695652 v -1.391305 h 1.391305 v 1.391305 H 15.304355 V 8.6198378 H 14.608702 V 9.3154902 H 13.91305 V 10.011143 H 13.217397 V 9.3154902 H 12.521745 V 8.6198378 h -0.695653 z"
           id="path5729"
           style="fill:#ffffff;fill-opacity:1" /></g><g
         aria-label="md"
         id="text345"
         style="font-size:8.53333px;font-family:'Public Pixel';-inkscape-font-specification:'Public Pixel';fill:#ffffff;stroke-width:0.623538;stroke-linecap:round;stroke-linejoin:round;stroke-dashoffset:28.7769;fill-opacity:1"
         inkscape:label="md"><path
           d="m 6.3999975,2.2662144 h 1.0666662 v 4.266665 H 5.3333312 V 2.2662144 H 4.266665 v 4.266665 H 3.1999987 V 2.2662144 H 2.1333325 v 4.266665 H 0 V 1.1995481 h 6.3999975 z"
           id="path5732"
           style="fill:#ffffff;fill-opacity:1" /><path
           d="m 10.666662,5.4662131 h 3.199999 V 2.2662144 h -3.199999 z m -1.0666658,0 H 8.53333 V 2.2662144 H 9.5999962 V 1.1995481 h 4.2666648 v -2.13333247 h 2.133333 V 6.5328794 H 9.5999962 Z"
           id="path5734"
           style="fill:#ffffff;fill-opacity:1" /></g><g
         aria-label="res"
         id="text5723"
         style="font-size:5.56522px;font-family:'Public Pixel';-inkscape-font-specification:'Public Pixel';fill:#f78e3c;stroke-width:0.406655;stroke-linecap:round;stroke-linejoin:round;stroke-dashoffset:28.7769;fill-opacity:1"><path
           d="M 3.5762787e-6,15.066216 V 11.587953 H 1.3913085 v 0.695653 H 2.086961 v 0.695652 H 1.3913085 v 2.086958 z M 4.1739185,12.283606 H 4.869571 v 0.695652 H 3.478266 V 12.283606 H 2.086961 v -0.695653 h 2.0869575 z"
           id="path5737"
           style="fill:#f78e3c;fill-opacity:1" /><path
           d="M 9.0434859,12.979258 V 12.283606 H 6.9565284 v 0.695652 z m -2.78261,1.391305 H 5.5652235 v -2.086957 h 0.6956524 v -0.695653 h 3.4782625 v 0.695653 h 0.6956526 v 1.391305 H 6.9565284 v 0.695652 h 2.78261 v 0.695653 H 6.2608759 Z"
           id="path5739"
           style="fill:#f78e3c;fill-opacity:1" /><path
           d="m 11.130443,15.066216 v -0.695653 h 3.478263 v -0.695652 h -3.478263 v -1.391305 h 0.695653 v -0.695653 h 4.173915 v 0.695653 h -3.478263 v 0.695652 h 3.478263 v 1.391305 h -0.695653 v 0.695653 z"
           id="path5741"
           style="fill:#f78e3c;fill-opacity:1" /></g></g></g><metadata
     id="metadata5846"><rdf:RDF><cc:Work
         rdf:about=""><dc:title>MD_to_CSV_resource</dc:title></cc:Work></rdf:RDF></metadata></svg>
