<?xml version="1.0" encoding="UTF-8" standalone="no"?>
<!-- Created with Inkscape (http://www.inkscape.org/) -->

<svg
   width="16"
   height="16"
   viewBox="0 0 16 16"
   version="1.1"
   id="svg848"
   inkscape:version="1.2.2 (732a01da63, 2022-12-09)"
   sodipodi:docname="MD_to_CSV.svg"
   xml:space="preserve"
   inkscape:export-filename="Projectile.png"
   inkscape:export-xdpi="96"
   inkscape:export-ydpi="96"
   xmlns:inkscape="http://www.inkscape.org/namespaces/inkscape"
   xmlns:sodipodi="http://sodipodi.sourceforge.net/DTD/sodipodi-0.dtd"
   xmlns="http://www.w3.org/2000/svg"
   xmlns:svg="http://www.w3.org/2000/svg"
   xmlns:rdf="http://www.w3.org/1999/02/22-rdf-syntax-ns#"
   xmlns:cc="http://creativecommons.org/ns#"
   xmlns:dc="http://purl.org/dc/elements/1.1/"><title
     id="title5848">Projectile</title><sodipodi:namedview
     id="namedview850"
     pagecolor="#ffffff"
     bordercolor="#000000"
     borderopacity="0.25"
     inkscape:showpageshadow="2"
     inkscape:pageopacity="0.0"
     inkscape:pagecheckerboard="0"
     inkscape:deskcolor="#d1d1d1"
     inkscape:document-units="mm"
     showgrid="false"
     inkscape:zoom="32.000002"
     inkscape:cx="4.1249997"
     inkscape:cy="11.062499"
     inkscape:window-width="1920"
     inkscape:window-height="1009"
     inkscape:window-x="-8"
     inkscape:window-y="-8"
     inkscape:window-maximized="1"
     inkscape:current-layer="g3247" /><defs
     id="defs845" /><g
     inkscape:label="Слой 1"
     inkscape:groupmode="layer"
     id="layer1"><g
       id="g3247"
       transform="translate(-3.5762787e-6,0.93378419)"><g
         aria-label="csv"
         id="text3139"
         style="font-size:5.56522px;font-family:'Public Pixel';-inkscape-font-specification:'Public Pixel';fill:#ffffff;fill-opacity:1;stroke-width:0.565781;stroke-linecap:round;stroke-linejoin:round;stroke-dashoffset:28.7769"
         inkscape:label="csv"
         transform="translate(7.6278701e-8,0.21874999)"><path
           d="M 0.69565248,11.843027 H 0 V 9.7560692 H 0.69565248 V 9.0604167 H 4.1739149 V 9.7560692 H 4.8695674 V 10.451722 H 3.4782624 V 9.7560692 H 1.391305 v 2.0869578 h 2.0869574 v -0.695653 h 1.391305 v 0.695653 H 4.1739149 v 0.695652 H 0.69565248 Z"
           id="path4015"
           style="fill:#ffffff;fill-opacity:1" /><path
           d="M 5.5652199,12.538679 V 11.843027 H 9.0434823 V 11.147374 H 5.5652199 V 9.7560692 H 6.2608724 V 9.0604167 H 10.434787 V 9.7560692 H 6.9565248 v 0.6956528 h 3.4782622 v 1.391305 H 9.7391348 v 0.695652 z"
           id="path4017"
           style="fill:#ffffff;fill-opacity:1" /><path
           d="M 11.826092,10.451722 H 11.13044 V 9.0604167 h 1.391305 v 1.3913053 h 0.695652 v 0.695652 h 0.695653 v -0.695652 h 0.695652 V 9.0604167 h 1.391305 v 1.3913053 h -0.695652 v 0.695652 h -0.695653 v 0.695653 H 13.91305 v 0.695652 h -0.695653 v -0.695652 h -0.695652 v -0.695653 h -0.695653 z"
           id="path4019"
           style="fill:#ffffff;fill-opacity:1" /></g><g
         aria-label="md"
         id="text345"
         style="font-size:8.53333px;font-family:'Public Pixel';-inkscape-font-specification:'Public Pixel';fill:#ffffff;stroke-width:0.623538;stroke-linecap:round;stroke-linejoin:round;stroke-dashoffset:28.7769;fill-opacity:1"
         inkscape:label="md"><path
           d="m 6.3999975,4.7937512 h 1.0666662 v 4.266665 H 5.3333312 V 4.7937512 H 4.266665 v 4.266665 H 3.1999987 V 4.7937512 H 2.1333325 v 4.266665 H 0 V 3.727085 h 6.3999975 z"
           id="path4010"
           style="fill:#ffffff;fill-opacity:1" /><path
           d="m 10.666662,7.99375 h 3.199999 V 4.7937512 h -3.199999 z m -1.0666658,0 H 8.53333 V 4.7937512 H 9.5999962 V 3.727085 H 13.866661 V 1.5937525 h 2.133333 V 9.0604162 H 9.5999962 Z"
           id="path4012"
           style="fill:#ffffff;fill-opacity:1" /></g></g></g><metadata
     id="metadata5846"><rdf:RDF><cc:Work
         rdf:about=""><dc:title>Projectile</dc:title></cc:Work></rdf:RDF></metadata></svg>
